<svg xmlns="http://www.w3.org/2000/svg" viewBox="0 0 184 184"><defs><style>.cls-1{fill:#fca751;}.cls-2{fill:#fff;}</style></defs><title>clientes</title><g id="Capa_2" data-name="Capa 2"><g id="Capa_1-2" data-name="Capa 1"><circle class="cls-1" cx="92" cy="92" r="92"/><path class="cls-2" d="M49,135.35V110.91c-2,0-3.94,0-5.89,0-.27,0-.59.61-.77,1a7.65,7.65,0,1,1-6.94-10.58,7.28,7.28,0,0,1,7,4.75,1.27,1.27,0,0,0,1.47,1c1.7-.06,3.4,0,5.23,0v-1.78q0-9.89,0-19.75,0-6.91,7-6.92c3.84,0,7.68,0,11.62,0V60.84h-19c0,1.15,0,2.29,0,3.43,0,1.59-.69,2.25-2.29,2.26-3.67,0-7.35,0-11,0-1.51,0-2.21-.68-2.22-2.2q0-5.58,0-11.16c0-1.46.68-2.15,2.13-2.16q5.64-.06,11.29,0c1.44,0,2.06.72,2.12,2.17,0,.6,0,1.2,0,1.8s0,1.09,0,1.81H69.2c1.92,0,2.52.6,2.52,2.53,0,5.86,0,11.72,0,17.57v1.64H89.35V49.26L88.59,49a7.53,7.53,0,0,1-4.8-8.63,7.64,7.64,0,0,1,7.55-6.25A7.77,7.77,0,0,1,99,40.5a7.45,7.45,0,0,1-4.74,8.41,1.18,1.18,0,0,0-.93,1.27c0,9.27,0,18.55,0,27.83a6.38,6.38,0,0,0,.09.79h18.43V77.31q0-8.78,0-17.57c0-2.29.48-2.75,2.8-2.75H135c0-1.25,0-2.34,0-3.44,0-1.7.65-2.36,2.31-2.37q5.44,0,10.9,0c1.61,0,2.27.68,2.28,2.26q0,5.5,0,11c0,1.58-.67,2.25-2.28,2.26q-5.46,0-10.9,0c-1.68,0-2.28-.66-2.31-2.37,0-1.1,0-2.2,0-3.37H116V78.86h1.34c3.84,0,7.69,0,11.54,0a5.94,5.94,0,0,1,6.32,6.35q0,10.2,0,20.39v1.62h6c0-1.11,0-2.25,0-3.39,0-1.65.61-2.27,2.25-2.28q5.51-.06,11,0c1.56,0,2,.55,2,2.13,0,3.59,0,7.18,0,10.77,0,2-.56,2.62-2.55,2.62-3.51,0-7,0-10.52,0-1.78,0-2.39-.62-2.41-2.38,0-1.06,0-2.13,0-3.3H135.1v24h6.51c2.83,0,3.56,1,2.82,3.74s-1.47,5.62-2.21,8.42c-.53,2-1,2.39-3.15,2.39H44.17c-1.52,0-2.05-.44-2.44-1.91q-1.27-4.77-2.53-9.53c-.53-2,.32-3.1,2.45-3.11Zm3.83.32H131v-2.28q0-23.73,0-47.44c0-2.62-.44-3.09-3-3.09q-36.23,0-72.45,0c-2.13,0-2.74.61-2.74,2.74v50.07Zm87.33,4.15H43.68l1.76,6.43h93.14C139.09,144.11,139.59,142,140.12,139.82ZM152.6,113V105.6h-7.38V113Zm-108-57.68H37.19v7.34h7.36Zm94.71-.06v7.41h7.33V55.25ZM95.16,41.86a3.76,3.76,0,1,0-7.52,0,3.86,3.86,0,0,0,3.79,3.73A3.7,3.7,0,0,0,95.16,41.86ZM38.89,109.34a4,4,0,0,0-3.76-3.81,3.74,3.74,0,1,0,3.76,3.81Zm74.81.1a21.78,21.78,0,1,1-21.3-22C104.27,87.74,114,97.86,113.7,109.44Zm-36.23,10a17,17,0,0,1,29.07,0A17.77,17.77,0,0,0,79.25,96.88C72.54,103.65,72.86,113.78,77.47,119.44Zm26,3.35a12.64,12.64,0,0,0-12.4-7.49c-4.56.29-9.43,3.81-10.48,7.58A17.36,17.36,0,0,0,103.48,122.79ZM92.06,93.41a8.62,8.62,0,0,1,8.68,8.72,8.74,8.74,0,1,1-8.68-8.72Zm0,13.48a4.83,4.83,0,0,0,4.77-4.7,4.79,4.79,0,1,0-9.57,0A4.84,4.84,0,0,0,92,106.89Z"/></g></g></svg>