<svg xmlns="http://www.w3.org/2000/svg" viewBox="0 0 184 184"><defs><style>.cls-1{fill:#72cde2;}.cls-2{fill:#fff;}</style></defs><title>conocimiento</title><g id="Capa_2" data-name="Capa 2"><g id="Capa_1-2" data-name="Capa 1"><circle class="cls-1" cx="92" cy="92" r="92"/><path class="cls-2" d="M75.31,62.77,80.2,62l6.34-1.06a.52.52,0,0,0,.3-.3c.55-1.27,1.06-2.55,1.61-3.82a.51.51,0,0,0-.1-.59l-6.24-8.93L82,47l9.74-9.72L95,39.68l5.8,4.15a.53.53,0,0,0,.59.08c1.24-.53,2.5-1,3.75-1.56a.62.62,0,0,0,.3-.39c.39-2.26.75-4.52,1.12-6.78.24-1.46.48-2.93.73-4.41H121c.17,1,.35,2,.52,3q.72,4.1,1.43,8.19a.62.62,0,0,0,.46.53c1.18.46,2.36.94,3.51,1.46a.68.68,0,0,0,.78-.07q4.38-3.17,8.77-6.32l.34-.22L146.57,47l-1.5,2.13q-2.5,3.59-5,7.16a.53.53,0,0,0,0,.6q.76,1.8,1.5,3.63a.53.53,0,0,0,.45.38c3.74.6,7.48,1.22,11.25,1.84V76.52l-2.92.51-8.36,1.49a.63.63,0,0,0-.37.33c-.53,1.23-1,2.47-1.55,3.71a.47.47,0,0,0,.07.54c2.18,3,4.34,6,6.51,9l.13.18c-3.25,3.24-6.48,6.47-9.74,9.74l-2.79-2c-2.18-1.52-4.35-3-6.53-4.56a.57.57,0,0,0-.49,0c-1.27.51-2.54,1-3.79,1.58a.59.59,0,0,0-.31.38q-.93,5.13-1.84,10.25c0,.32-.11.63-.17,1H107.3l-.81-4.78c-.35-2.14-.7-4.29-1.07-6.43a.55.55,0,0,0-.3-.35c-1.27-.55-2.55-1.08-3.83-1.59a.68.68,0,0,0-.5.08c-2.28,1.58-4.55,3.18-6.82,4.77L91.58,102c-3.26-3.25-6.49-6.48-9.74-9.74,1-1.4,2-2.85,3.07-4.29q1.7-2.39,3.42-4.77a.62.62,0,0,0,.06-.7c-.52-1.18-1-2.35-1.49-3.55a.72.72,0,0,0-.63-.53l-9-1.59-1.92-.35Zm61,32,3.08-3.08c0-.06-.1-.16-.17-.25q-2.79-3.89-5.59-7.78a.53.53,0,0,1,0-.69c.58-1,1.14-1.93,1.66-2.92A25.14,25.14,0,0,0,137.31,74a.47.47,0,0,1,.44-.43c2.26-.38,4.51-.79,6.76-1.19l3.12-.55V67.5l-9.78-1.6c-.3,0-.46-.13-.53-.45a26.06,26.06,0,0,0-3.78-9.07.4.4,0,0,1,0-.53l4-5.77c.57-.82,1.15-1.64,1.74-2.5l-2.88-2.86c-.19-.19-.31-.11-.48,0-2.59,1.87-5.19,3.73-7.78,5.61a.52.52,0,0,1-.68,0,25.75,25.75,0,0,0-9-3.76.51.51,0,0,1-.44-.49c-.35-2.08-.72-4.17-1.08-6.25-.2-1.17-.41-2.34-.62-3.52H112a1.49,1.49,0,0,0,0,.18c-.52,3.18-1,6.36-1.56,9.54,0,.32-.15.46-.45.52a25.25,25.25,0,0,0-9.09,3.73.46.46,0,0,1-.61,0c-2.09-1.51-4.2-3-6.3-4.5l-1.74-1.23-3.07,3.09.12.18q2.76,3.93,5.51,7.85a.53.53,0,0,1,0,.69c-.46.73-.91,1.47-1.32,2.22a25.93,25.93,0,0,0-2.45,6.81.5.5,0,0,1-.46.47c-2.52.4-5,.83-7.55,1.25l-2.16.36v4.35l.53.11c3,.54,6.09,1.09,9.13,1.61.34.06.44.22.51.52.17.74.37,1.47.58,2.2a24.58,24.58,0,0,0,3.18,6.78.51.51,0,0,1,0,.69c-.39.51-.75,1-1.12,1.56l-4.41,6.16c-.12.16-.24.28,0,.48,1,1,1.92,1.92,2.89,2.89l.35-.22c2.53-1.78,5.07-3.54,7.59-5.34a.78.78,0,0,1,1,0c.77.5,1.57,1,2.38,1.39a25,25,0,0,0,6.46,2.24.53.53,0,0,1,.48.5c.29,1.83.59,3.65.9,5.48.23,1.42.47,2.84.72,4.27h4.34c0-.22.08-.4.11-.59.55-3.07,1.1-6.14,1.63-9.22a.49.49,0,0,1,.46-.46,25.75,25.75,0,0,0,8.94-3.75.54.54,0,0,1,.73,0C130.93,91,133.63,92.92,136.31,94.8ZM75,136.54c-4.76,0-9.53,0-14.29,0a9.46,9.46,0,0,1-2.59-.35,9.86,9.86,0,0,1-6.93-8.65c-.3-2.71-.72-5.41-1.08-8.11s-.73-5.38-1.1-8.07c-.25-1.85-.5-3.7-.77-5.54a.61.61,0,0,0-.29-.42c-2.33-1.18-4.67-2.34-7-3.51-1.19-.59-2.39-1.18-3.59-1.79a1.58,1.58,0,0,1-.76-2.37l.17-.31q5.72-9.84,11.42-19.68a1.63,1.63,0,0,0,.2-.61,81.66,81.66,0,0,1,1.6-9.8,48.05,48.05,0,0,1,5-13.41,32.18,32.18,0,0,1,7.94-9.36,34.07,34.07,0,0,1,12.76-6.23c1.92-.5,3.88-.83,5.82-1.24a2.78,2.78,0,0,0-.88-5.49,51.7,51.7,0,0,0-10.53,2.7A37.72,37.72,0,0,0,49.2,52.8c-3.39,6.61-5,13.72-6,21A5.4,5.4,0,0,1,42.74,76q-5.49,9.43-11,18.88a6.74,6.74,0,0,0-1,3.32,7.06,7.06,0,0,0,4,6.87c2.6,1.33,5.23,2.63,7.84,4a.79.79,0,0,1,.39.46c.12.66.19,1.33.28,2q.55,4.06,1.1,8.11.51,3.72,1,7.42a24.72,24.72,0,0,0,1.15,5.37,15.08,15.08,0,0,0,14.06,9.77h9.07v11.12h5.51V136.56Zm50.46,12.11c0-4.56,0-9.12,0-13.68a39.15,39.15,0,0,1,6.17-20.42c.58-.94,1.24-1.83,1.79-2.79a2.76,2.76,0,0,0-4.64-3,49.05,49.05,0,0,0-6.33,12.08,40.57,40.57,0,0,0-2.52,12.83c-.11,4.83-.08,9.67-.1,14.5,0,1.5,0,3,0,4.51v.51h5.6Zm-11.15-65a13.91,13.91,0,1,1,13.89-13.92A14,14,0,0,1,114.27,83.64Zm0-22.26a8.36,8.36,0,1,0,8.36,8.34A8.32,8.32,0,0,0,114.26,61.38Z"/></g></g></svg>