<svg xmlns="http://www.w3.org/2000/svg" viewBox="0 0 184 184"><defs><style>.cls-1{fill:#1b559f;}.cls-2{fill:#fff;}</style></defs><title>información</title><g id="Capa_2" data-name="Capa 2"><g id="Capa_1-2" data-name="Capa 1"><circle class="cls-1" cx="92" cy="92" r="92"/><path class="cls-2" d="M89.23,165a17.08,17.08,0,0,1-7.42-4,14.67,14.67,0,0,1,5.91-24.55,2,2,0,0,0,1.76-2.35q-.11-9.11,0-18.22c0-1.39-.43-1.78-1.79-1.76-4.22.08-8.44,0-12.67,0a2.71,2.71,0,0,0-2.15.84q-4.44,4.52-9,9a1.52,1.52,0,0,0-.29,2.2A14.6,14.6,0,0,1,51.3,147.93c-7.7.24-14.69-6.32-14.83-13.92-.16-8.42,6.1-15.14,14.14-15.25a14.32,14.32,0,0,1,7.61,1.93,1.24,1.24,0,0,0,1.83-.19c2-2,4-4,6-6,.59-.57.86-.87-.19-1.33-7.37-3.2-10.89-9-10.28-17.07.09-1.16-.26-1.38-1.28-1.34-1.61.06-3.22,0-4.84,0A1.33,1.33,0,0,0,48,95.83c-2.06,6.7-6.69,10.39-13.66,11-7.62.63-14.91-6.11-15.26-13.77A14.89,14.89,0,0,1,30.38,77.77,14.63,14.63,0,0,1,47.8,87.84a1.92,1.92,0,0,0,2.27,1.67c2.13-.11,4.27-.06,6.41,0a2.15,2.15,0,0,0,2-1A15.19,15.19,0,0,1,69.25,82c1-.13,1.64-.48,1.82-1.6a7.4,7.4,0,0,1,.86-2.55c.66-1.16.41-1.89-.53-2.81-3.71-3.59-7.38-7.25-11-11-.92-.95-1.55-.9-2.63-.32A15,15,0,0,1,35.67,51a15,15,0,0,1,29.71-3.4,14.64,14.64,0,0,1-1.75,10.56,1.5,1.5,0,0,0,.3,2.19Q69.3,65.62,74.6,71c.64.65,1.07.87,1.82.09a19,19,0,0,1,11.65-5.71c1.12-.15,1.41-.58,1.4-1.63q-.06-7,0-14a1.63,1.63,0,0,0-1.41-1.88c-6.47-1.88-11-8-10.73-14.29.34-7.37,5-12.94,12.13-14.34,9.2-1.83,18,6,17.27,15.36A14.5,14.5,0,0,1,95.93,48c-.89.26-1.25.65-1.24,1.57,0,5,0,10.06,0,15.09a1.36,1.36,0,0,0,1.16,1.49,19.44,19.44,0,0,1,10,6.92c.57.74.94.7,1.55.08q6.47-6.53,13-13c.7-.7.56-1.23.14-2a14.52,14.52,0,1,1,5.39,5.4c-.53-.3-1-.71-1.61-.07-4.55,4.57-9.13,9.11-13.89,13.85,1.17.15,2.08.21,3,.37A17.46,17.46,0,0,1,127,88.06a2,2,0,0,0,2.23,1.44c1.85-.09,3.7,0,5.55,0a1.23,1.23,0,0,0,1.42-1,14.68,14.68,0,0,1,14.33-11.06c6.76,0,12.09,4.28,14.24,11.22.07.22.16.44.24.66V95c-.17.54-.35,1.08-.53,1.62a14.66,14.66,0,0,1-17.33,9.85,14.22,14.22,0,0,1-10.86-10.37c-.31-1-.77-1.38-1.79-1.34-1.46.06-2.94.07-4.41,0-1.15-.06-1.5.41-1.44,1.5a11.52,11.52,0,0,1-.17,2.55,17.9,17.9,0,0,1-10.37,13.72c-1,.48-1.2.81-.32,1.66,2.16,2.06,4.26,4.19,6.34,6.34a1.24,1.24,0,0,0,1.82.23,14.43,14.43,0,0,1,8.72-2,14.78,14.78,0,0,1,13.16,17.91c-1.47,6-5.3,10-11.37,11.26a13.9,13.9,0,0,1-14.94-5.65c-3.76-5.08-4-10.62-.93-16.19a1.53,1.53,0,0,0-.3-2.19c-3-2.92-5.93-5.88-8.86-8.86a2.91,2.91,0,0,0-2.25-.94c-4.23,0-8.45.07-12.67,0-1.35,0-1.81.36-1.79,1.76q.1,9.1,0,18.22a2,2,0,0,0,1.76,2.35,14.67,14.67,0,0,1,7.07,23.3A16.11,16.11,0,0,1,94.92,165Zm1.83-56.11c6.36,0,12.72,0,19.08,0a13.07,13.07,0,1,0-1.82-26c-2.52.46-3.29,0-4.12-2.45A14.69,14.69,0,0,0,75.63,84c-.16,2.2-1.09,3.07-3.25,3-.52,0-1,0-1.57,0A10.8,10.8,0,0,0,60.67,98.21c.19,6.33,4.86,10.64,11.18,10.67S84.66,108.88,91.06,108.88Zm1-65.55a9.55,9.55,0,1,0-9.57-9.63A9.62,9.62,0,0,0,92.06,43.33ZM43.31,92.08a9.55,9.55,0,1,0-9.59,9.6A9.62,9.62,0,0,0,43.31,92.08Zm97.53,0a9.55,9.55,0,1,0,9.67-9.52A9.62,9.62,0,0,0,140.84,92ZM101.66,150.5A9.59,9.59,0,1,0,92.05,160,9.61,9.61,0,0,0,101.66,150.5Zm31.65-90.09a9.63,9.63,0,0,0,9.58-9.49,9.57,9.57,0,1,0-19.13-.12A9.55,9.55,0,0,0,133.31,60.41Zm-82.5,0a9.56,9.56,0,1,0-9.53-9.65A9.54,9.54,0,0,0,50.81,60.42Zm-.07,82.31a9.32,9.32,0,0,0,9.65-9.29,9.56,9.56,0,1,0-19.11-.06A9.35,9.35,0,0,0,50.74,142.73Zm82.58,0a9.33,9.33,0,0,0,9.55-9.38,9.56,9.56,0,0,0-9.5-9.54,9.76,9.76,0,0,0-9.58,9.53A9.29,9.29,0,0,0,133.32,142.73Z"/></g></g></svg>