<svg xmlns="http://www.w3.org/2000/svg" viewBox="0 0 184 184"><defs><style>.cls-1{fill:#f15d4f;}.cls-2{fill:#fff;}</style></defs><title>productividad</title><g id="Capa_2" data-name="Capa 2"><g id="Capa_1-2" data-name="Capa 1"><circle class="cls-1" cx="92" cy="92" r="92"/><path class="cls-2" d="M59.69,119.39v19.12H45.84V119.39H59.69m4-4H41.84v27.12H63.69V115.39Z"/><path class="cls-2" d="M86.82,97.54v41H73v-41H86.82m4-4H69v49H90.82v-49Z"/><path class="cls-2" d="M113.19,108.08v30.43H99.34V108.08h13.85m4-4H95.34v38.43h21.85V104.08Z"/><path class="cls-2" d="M140.32,83.22v55.29H126.47V83.22h13.85m4-4H122.47v63.29h21.85V79.22Z"/><polygon class="cls-2" points="147 39.49 121.01 46.98 128.58 54.27 106.71 76.98 74.97 63.74 31 107.78 35.27 112.04 76.38 70.86 108.2 84.13 132.92 58.45 140.49 65.74 147 39.49"/></g></g></svg>