<svg xmlns="http://www.w3.org/2000/svg" viewBox="0 0 1127 449.72"><title>Logo It Work</title><path class="cls-1" d="M664,190.59c-1.48,4.86-2.85,9.31-4.19,13.78q-4.17,14-8.32,28-6.1,20.46-12.24,40.9-3.6,12-7.23,23.93a4.65,4.65,0,0,1-4.83,3.62c-4.77,0-9.53,0-14.29,0-3,0-4.6-1.18-5.57-4.06q-8.85-26.47-17.68-52.95-11.64-34.78-23.3-69.54c-1-2.92-2.07-5.8-3-8.73-1.2-3.78.61-6.25,4.52-6.27q5,0,10,0c3.25,0,4.68,1.05,5.68,4.13q8.6,26.35,17.15,52.7,7,21.51,14,43,2.22,6.86,4.48,13.72a3.21,3.21,0,0,0,.87,1.68c.93-3,1.86-5.94,2.71-8.87q4.51-15.41,9-30.82,7-23.91,14-47.8,3.53-12,7.11-24c.82-2.71,2.26-3.78,5.07-3.8q6.38,0,12.74,0c2.71,0,4,1,4.77,3.6q7.68,26.3,15.35,52.6c4.32,14.76,8.71,29.51,13.06,44.26,1.46,5,2.91,9.93,4.53,15.43.83-2.46,1.51-4.42,2.16-6.4q4.77-14.62,9.52-29.27,7.21-22.25,14.42-44.49,5-15.47,10-30.94c1.22-3.78,2.62-4.79,6.6-4.79h9.27c4.55,0,6.19,2.26,4.74,6.59q-9.86,29.38-19.71,58.77-8.25,24.65-16.45,49.3-3.88,11.6-7.83,23.15a4.94,4.94,0,0,1-5.19,3.74q-7.14,0-14.28,0c-2.66,0-4.25-1.1-5-3.62q-5.43-17.64-10.8-35.31-3.67-12-7.35-24.1-6.39-21.08-12.77-42.14C665.2,194.09,664.67,192.54,664,190.59Zm357,105.68c0,3.29,1.26,4.56,4.53,4.57,3.54,0,7.08,0,10.62,0,4,0,5.15-1.12,5.15-5.14q0-18,0-36.1c0-8.11,0-16.22,0-24.33,0-1.47.39-2.13,2-2a32.23,32.23,0,0,0,5.2,0,4.23,4.23,0,0,1,4,2q11.49,14.56,23,29.09,13.38,16.86,26.8,33.69c1.22,1.54,2.64,2.84,4.79,2.84,5.6,0,11.2,0,16.8,0a3,3,0,0,0,2.7-4.44,18.88,18.88,0,0,0-2.19-3.15c-6-7.5-12.07-15-18.08-22.46-4.89-6.1-9.72-12.24-14.6-18.34q-11.18-14-22.41-27.86c-1.06-1.3-1-2.14.25-3.27s2.47-2.77,3.78-4.09c5.8-5.83,11.43-11.83,17.07-17.81,6.92-7.34,14-14.54,21-21.8q5.49-5.68,11-11.38a6.28,6.28,0,0,0,1-1.38c1.51-2.92.11-5.59-3-5.57-5.34,0-10.68,0-16,0a5.69,5.69,0,0,0-4.27,1.89c-4.51,4.83-9,9.7-13.47,14.55q-4.7,5.1-9.41,10.17c-7.58,8.12-15.29,16.11-22.7,24.38a10.54,10.54,0,0,1-9.55,3.91c-4.15-.35-3.69.4-3.69-3.78q0-47,0-94c0-3.88-1.49-5.36-5.37-5.37q-4.73,0-9.46,0c-4.25,0-5.48,1.24-5.48,5.52v89.58Q1021,251.19,1021,296.27Zm-242.11-44.4a37.92,37.92,0,0,0,.45,5.93c2.3,14,8.77,25.63,19.86,34.55,12.81,10.29,27.52,13.6,43.53,11.06a51.32,51.32,0,0,0,29-15.12,53.26,53.26,0,0,0,15.84-38.43c.09-12.94,0-25.87,0-38.8a57.81,57.81,0,0,0-.75-9.57,52.5,52.5,0,0,0-20.29-34.24c-13.94-10.76-29.85-13.53-46.81-9.59a51.12,51.12,0,0,0-28.59,18.1,53.38,53.38,0,0,0-12.31,34.41c0,6.57,0,13.13,0,19.69C778.91,237.2,778.88,244.53,778.93,251.87Zm19.92-42.07c.17-9.72,3.45-18.27,10.48-25.06a34.62,34.62,0,0,1,44.6-2.76c8,6,12.71,14.07,13.38,24.12,1,15.09.47,30.22.31,45.32a33.08,33.08,0,0,1-11.16,24.75,34.13,34.13,0,0,1-18.94,8.65,33.14,33.14,0,0,1-24.21-6.14,32.78,32.78,0,0,1-14.11-24.33c-.85-8.08,0-16.19-.37-22.64C798.83,223.31,798.74,216.55,798.85,209.8ZM339.64,148.86c0-1.9.45-2.56,2.46-2.53,7.33.11,14.67.06,22,0,2.82,0,4.13-1.31,4.15-4.11,0-3.73,0-7.46,0-11.2,0-2.63-1.15-3.82-3.73-3.82q-35.41,0-70.84,0c-2.51,0-3.63,1.15-3.65,3.67,0,3.8,0,7.6,0,11.39,0,3,1,4.07,4,4.08,7.4,0,14.8.06,22.2,0,1.87,0,2.39.56,2.39,2.41q-.08,65.34,0,130.68c0,1.75-.48,2.33-2.28,2.31-7.46-.09-14.93-.05-22.39,0-2.87,0-3.92,1.07-3.93,4,0,3.8,0,7.59,0,11.39,0,2.65,1.11,3.77,3.75,3.77h70.64c2.72,0,3.82-1.14,3.83-3.91q0-5.51,0-11c0-3-1.24-4.22-4.19-4.23H342.44c-2.75,0-2.76,0-2.76-2.73V214.11Q339.68,181.49,339.64,148.86Zm112.8.7c0-2.8,0-2.8,2.88-2.8q20,0,40,0c2.64,0,3.82-1.09,3.86-3.71q.11-6.07,0-12.16c0-2.38-1.41-3.65-3.78-3.65q-53.28,0-106.56,0c-2.65,0-3.75,1.11-3.77,3.75,0,3.79,0,7.59,0,11.39,0,3.49.93,4.39,4.49,4.39h38.8c3.05,0,3.05,0,3.05,3V294.56c0,.71,0,1.42,0,2.13.11,2.78,1.46,4.13,4.2,4.14,4.12,0,8.24,0,12.36,0,3.64,0,4.51-.88,4.51-4.57V149.56Zm497.44,19.09c.37-4.78-4-9.54-9.46-9.43-10,.2-20.07.05-30.11.06-3.32,0-4.66,1.28-4.72,4.64-.06,3-.06,6.05,0,9.08,0,3.22,1.54,4.64,4.79,4.65,5.73,0,11.45.07,17.18,0,1.88,0,2.38.59,2.37,2.42q-.07,49.6,0,99.21c0,2-.56,2.54-2.51,2.49-5.59-.12-11.19-.07-16.79,0-3.12,0-4.93,1.46-5,4.13-.12,3.66-.14,7.33,0,11,.13,2.84,1.45,4,4.13,4h68.71c2.65,0,3.76-1.11,3.78-3.74,0-3.54,0-7.07,0-10.61,0-3.25-.68-4.09-3.81-4.66a13.54,13.54,0,0,0-2.3-.13c-8.11,0-16.22,0-24.32,0-1.48,0-2.13-.4-2-2s0-3.35,0-5q0-34.65,0-69.29a3.57,3.57,0,0,1,1.43-3.28c6.51-5.1,12.84-10.41,19.5-15.3,3.77-2.78,7.53-5.55,11.91-7.37,4.78-2,9.77-1.89,14.78-1.85,2.73,0,4.35-1.32,4.46-4,.15-4,.16-8,0-12-.12-2.9-1.45-4-4.33-4H990.4a31.87,31.87,0,0,0-17.25,5.21C965,168,957.9,174.42,949.82,180.28,949.82,176.2,949.59,172.4,949.88,168.65Z"/><path class="cls-2" d="M259.47,183.27,221,39.33a21.28,21.28,0,1,0-5.42,1.5L254,184.72Z"/><path class="cls-3" d="M239.7,200.28,53.31,110.75a27.07,27.07,0,0,0,1.4-8.58,27.37,27.37,0,1,0-4.55,15.1L236.57,206.8Z"/><path class="cls-4" d="M240.41,228l-1.33-3.79L130.3,262.47a16.06,16.06,0,1,0,1.64,7,15.76,15.76,0,0,0-.33-3.24Z"/><path class="cls-5" d="M176.44,406l82.61-160.55-6.43-3.31-82.3,159.94a25,25,0,1,0,6.12,3.92Z"/></svg>