<svg width="89" height="139" viewBox="0 0 89 139">
<path d="M82.7612 71.4003C85.7537 71.4003 88.1796 68.9743 88.1796 65.9816C88.1796 62.989 85.7537 60.563 82.7612 60.563C79.7687 60.563 77.3428 62.989 77.3428 65.9816C77.3428 68.9743 79.7687 71.4003 82.7612 71.4003Z" fill="#303450"/>
<path d="M79.4396 56.5741L67.663 12.5086C69.1839 11.861 70.4018 10.6594 71.0698 9.14728C71.7378 7.63516 71.806 5.92563 71.2606 4.36509C70.7151 2.80456 69.5969 1.50975 68.1324 0.743045C66.6679 -0.0236582 64.9667 -0.20491 63.3735 0.23602C61.7803 0.67695 60.4144 1.70708 59.5524 3.11767C58.6905 4.52825 58.397 6.21379 58.7314 7.83271C59.0659 9.45164 60.0033 10.8829 61.3536 11.8364C62.704 12.7899 64.3663 13.1943 66.0038 12.9678L77.7651 57.018L79.4396 56.5741Z" fill="#F15D4F"/>
<path d="M73.3875 61.7816L16.3287 34.3731C16.6122 33.5263 16.7569 32.6393 16.7573 31.7464C16.7582 29.7355 16.0359 27.7914 14.7223 26.269C13.4087 24.7465 11.5914 23.7472 9.60216 23.4536C7.61294 23.16 5.58446 23.5915 3.88703 24.6695C2.18959 25.7475 0.936426 27.4 0.356293 29.3254C-0.223839 31.2507 -0.0922415 33.3205 0.727061 35.1569C1.54636 36.9932 2.99873 38.4737 4.81901 39.328C6.6393 40.1823 8.7061 40.3535 10.6421 39.8103C12.5781 39.267 14.2542 38.0456 15.3644 36.3691L72.4293 63.7776L73.3875 61.7816Z" fill="#FCA751"/>
<path d="M73.6046 70.2677L73.1974 69.1074L39.8971 80.8203C39.3652 79.7356 38.4527 78.8847 37.3335 78.4299C36.2144 77.9751 34.967 77.9483 33.8293 78.3546C32.6917 78.7609 31.7434 79.5719 31.1655 80.6327C30.5876 81.6936 30.4205 82.9301 30.696 84.1063C30.9716 85.2826 31.6705 86.3161 32.6595 87.0099C33.6485 87.7036 34.8583 88.009 36.058 87.8676C37.2577 87.7263 38.3634 87.1482 39.1641 86.2436C39.9648 85.339 40.4044 84.1713 40.3991 82.9632C40.3998 82.63 40.3659 82.2976 40.2981 81.9714L73.6046 70.2677Z" fill="#72CDE2"/>
<path d="M54.022 124.76L79.3111 75.6098L77.3427 74.5964L52.1486 123.56C50.3864 122.765 48.3886 122.666 46.5567 123.284C44.7248 123.902 43.1944 125.19 42.2731 126.889C41.3518 128.589 41.1079 130.574 41.5902 132.446C42.0726 134.318 43.2456 135.939 44.8735 136.981C46.5013 138.024 48.4635 138.412 50.3658 138.067C52.268 137.723 53.9693 136.671 55.1279 135.123C56.2864 133.576 56.8164 131.647 56.6112 129.724C56.4061 127.802 55.4811 126.029 54.022 124.76Z" fill="#1B559F"/>
</svg>
